# xmcd CD database file
#
# Track frame offsets:
#	150
#	36635
#	84817
#	130645
#	164932
#	200742
#	225627
#	251677
#
# Disc length: 3575 seconds
#
# Revision: 0
# Processed by: cddbd v1.4PL0 Copyright (c) Steve Scherf et al.
# Submitted via: CDex 1.40Beta9
#
DISCID=6d0df508
DTITLE=Osee Anderson - Smokin' Not! Jokin'
DYEAR=1996
DGENRE=Blues
TTITLE0=Next Time You See Me
TTITLE1=Country Boy
TTITLE2=I Got a Woman
TTITLE3=Breakini Up Somebodyis Home
TTITLE4=Ainit No Road Back Home
TTITLE5=The Last to Know
TTITLE6=I Loves Ya Anyway
TTITLE7=Momis Song
EXTD=YEAR: 1996 ID3G: 0
EXTT0=
EXTT1=
EXTT2=
EXTT3=
EXTT4=
EXTT5=
EXTT6=
EXTT7=
PLAYORDER=
